<svg xmlns="http://www.w3.org/2000/svg" xmlns:xlink="http://www.w3.org/1999/xlink" width="1080" zoomAndPan="magnify" viewBox="0 0 810 809.999993" height="1080" preserveAspectRatio="xMidYMid meet" version="1.0"><defs><clipPath id="352783b5f7"><path d="M 318.96875 561.664062 L 426.003906 561.664062 L 426.003906 574.046875 L 318.96875 574.046875 Z M 318.96875 561.664062 " clip-rule="nonzero"/></clipPath><clipPath id="beb31740a9"><path d="M 421.9375 574.046875 C 421.65625 571.285156 421.375 568.898438 421.082031 566.929688 C 410.378906 565.632812 391.039062 565.035156 370.925781 565.035156 C 353.234375 565.035156 334.945312 565.496094 321.441406 566.359375 C 320.742188 564.863281 319.917969 563.28125 318.96875 561.664062 L 426.003906 562.5625 L 425.65625 573.703125 C 424.417969 573.851562 423.175781 573.964844 421.9375 574.046875 " clip-rule="nonzero"/></clipPath><clipPath id="ce723517c9"><path d="M 421.9375 574.046875 C 421.65625 571.285156 421.375 568.898438 421.082031 566.929688 C 410.378906 565.632812 391.039062 565.035156 370.925781 565.035156 C 353.234375 565.035156 334.945312 565.496094 321.441406 566.359375 C 320.742188 564.863281 319.917969 563.28125 318.96875 561.664062 L 426.003906 562.5625 L 425.65625 573.703125 C 424.417969 573.851562 423.175781 573.964844 421.9375 574.046875 " clip-rule="nonzero"/></clipPath><linearGradient x1="0.108043" gradientTransform="matrix(0, 34.602604, 34.60627, 0, 366.5986, 557.926835)" y1="0" x2="0.465817" gradientUnits="userSpaceOnUse" y2="0" id="e0419e2626"><stop stop-opacity="1" stop-color="rgb(82.398987%, 82.398987%, 81.999207%)" offset="0"/><stop stop-opacity="1" stop-color="rgb(82.548523%, 82.398987%, 81.999207%)" offset="0.0625"/><stop stop-opacity="1" stop-color="rgb(82.797241%, 82.398987%, 82.096863%)" offset="0.078125"/><stop stop-opacity="1" stop-color="rgb(82.995605%, 82.398987%, 82.296753%)" offset="0.09375"/><stop stop-opacity="1" stop-color="rgb(83.097839%, 82.548523%, 82.548523%)" offset="0.125"/><stop stop-opacity="1" stop-color="rgb(83.099365%, 82.800293%, 82.699585%)" offset="0.140625"/><stop stop-opacity="1" stop-color="rgb(83.100891%, 83.000183%, 82.699585%)" offset="0.15625"/><stop stop-opacity="1" stop-color="rgb(83.297729%, 83.099365%, 82.699585%)" offset="0.1875"/><stop stop-opacity="1" stop-color="rgb(83.496094%, 83.100891%, 82.699585%)" offset="0.203125"/><stop stop-opacity="1" stop-color="rgb(83.499146%, 83.297729%, 82.699585%)" offset="0.21875"/><stop stop-opacity="1" stop-color="rgb(83.499146%, 83.496094%, 82.798767%)" offset="0.234375"/><stop stop-opacity="1" stop-color="rgb(83.499146%, 83.499146%, 82.998657%)" offset="0.25"/><stop stop-opacity="1" stop-color="rgb(83.692932%, 83.692932%, 83.293152%)" offset="0.265625"/><stop stop-opacity="1" stop-color="rgb(83.992004%, 83.992004%, 83.493042%)" offset="0.273438"/><stop stop-opacity="1" stop-color="rgb(84.196472%, 84.196472%, 83.499146%)" offset="0.28125"/><stop stop-opacity="1" stop-color="rgb(84.298706%, 84.101868%, 83.499146%)" offset="0.3125"/><stop stop-opacity="1" stop-color="rgb(84.396362%, 83.999634%, 83.595276%)" offset="0.328125"/><stop stop-opacity="1" stop-color="rgb(84.594727%, 84.19342%, 83.79364%)" offset="0.34375"/><stop stop-opacity="1" stop-color="rgb(84.69696%, 84.394836%, 83.895874%)" offset="0.359375"/><stop stop-opacity="1" stop-color="rgb(84.698486%, 84.596252%, 83.898926%)" offset="0.375"/><stop stop-opacity="1" stop-color="rgb(84.799194%, 84.698486%, 83.998108%)" offset="0.390625"/><stop stop-opacity="1" stop-color="rgb(84.999084%, 84.698486%, 84.197998%)" offset="0.40625"/><stop stop-opacity="1" stop-color="rgb(85.099792%, 84.698486%, 84.298706%)" offset="0.4375"/><stop stop-opacity="1" stop-color="rgb(85.195923%, 84.794617%, 84.394836%)" offset="0.453125"/><stop stop-opacity="1" stop-color="rgb(85.392761%, 84.992981%, 84.593201%)" offset="0.46875"/><stop stop-opacity="1" stop-color="rgb(85.496521%, 85.096741%, 84.695435%)" offset="0.5"/><stop stop-opacity="1" stop-color="rgb(85.499573%, 85.292053%, 84.698486%)" offset="0.515625"/><stop stop-opacity="1" stop-color="rgb(85.595703%, 85.491943%, 84.794617%)" offset="0.523438"/><stop stop-opacity="1" stop-color="rgb(85.795593%, 85.499573%, 84.996033%)" offset="0.53125"/><stop stop-opacity="1" stop-color="rgb(86.094666%, 85.694885%, 85.099792%)" offset="0.5625"/><stop stop-opacity="1" stop-color="rgb(86.390686%, 85.894775%, 85.194397%)" offset="0.578125"/><stop stop-opacity="1" stop-color="rgb(86.592102%, 85.899353%, 85.391235%)" offset="0.59375"/><stop stop-opacity="1" stop-color="rgb(86.695862%, 85.900879%, 85.496521%)" offset="0.609375"/><stop stop-opacity="1" stop-color="rgb(86.698914%, 86.097717%, 85.499573%)" offset="0.625"/><stop stop-opacity="1" stop-color="rgb(86.698914%, 86.296082%, 85.499573%)" offset="0.65625"/><stop stop-opacity="1" stop-color="rgb(86.8927%, 86.49292%, 85.693359%)" offset="0.671875"/><stop stop-opacity="1" stop-color="rgb(87.09259%, 86.69281%, 85.89325%)" offset="0.6875"/><stop stop-opacity="1" stop-color="rgb(87.19635%, 86.79657%, 85.997009%)" offset="0.71875"/><stop stop-opacity="1" stop-color="rgb(87.39624%, 86.99646%, 86.196899%)" offset="0.75"/><stop stop-opacity="1" stop-color="rgb(87.498474%, 87.097168%, 86.39679%)" offset="0.765625"/><stop stop-opacity="1" stop-color="rgb(87.5%, 87.098694%, 86.59668%)" offset="0.78125"/><stop stop-opacity="1" stop-color="rgb(87.644958%, 87.29248%, 86.697388%)" offset="0.8125"/><stop stop-opacity="1" stop-color="rgb(87.887573%, 87.493896%, 86.790466%)" offset="0.820312"/><stop stop-opacity="1" stop-color="rgb(88.087463%, 87.5%, 86.987305%)" offset="0.828125"/><stop stop-opacity="1" stop-color="rgb(88.194275%, 87.5%, 87.095642%)" offset="0.84375"/><stop stop-opacity="1" stop-color="rgb(88.294983%, 87.571716%, 87.194824%)" offset="0.859375"/><stop stop-opacity="1" stop-color="rgb(88.493347%, 87.718201%, 87.393188%)" offset="0.875"/><stop stop-opacity="1" stop-color="rgb(88.497925%, 87.796021%, 87.496948%)" offset="0.890625"/><stop stop-opacity="1" stop-color="rgb(88.302612%, 87.799072%, 87.5%)" offset="0.90625"/><stop stop-opacity="1" stop-color="rgb(88.394165%, 87.992859%, 87.5%)" offset="0.9375"/><stop stop-opacity="1" stop-color="rgb(88.774109%, 88.192749%, 87.649536%)" offset="0.96875"/><stop stop-opacity="1" stop-color="rgb(88.980103%, 88.198853%, 87.895203%)" offset="0.984375"/><stop stop-opacity="1" stop-color="rgb(88.999939%, 88.198853%, 88.092041%)" offset="1"/></linearGradient><clipPath id="149caea05d"><path d="M 307.191406 561.570312 L 321.441406 561.570312 L 321.441406 571.921875 L 307.191406 571.921875 Z M 307.191406 561.570312 " clip-rule="nonzero"/></clipPath><clipPath id="02e2c2b56f"><path d="M 307.507812 571.921875 C 307.402344 571.921875 307.296875 571.921875 307.191406 571.917969 L 307.390625 561.570312 L 318.96875 561.664062 C 319.917969 563.28125 320.742188 564.863281 321.441406 566.359375 C 315.960938 566.710938 311.265625 567.125 307.71875 567.601562 C 307.667969 568.804688 307.597656 570.25 307.507812 571.921875 " clip-rule="nonzero"/></clipPath><clipPath id="3c3d8e82b4"><path d="M 307.507812 571.921875 C 307.402344 571.921875 307.296875 571.921875 307.191406 571.917969 L 307.390625 561.570312 L 318.96875 561.664062 C 319.917969 563.28125 320.742188 564.863281 321.441406 566.359375 C 315.960938 566.710938 311.265625 567.125 307.71875 567.601562 C 307.667969 568.804688 307.597656 570.25 307.507812 571.921875 " clip-rule="nonzero"/></clipPath><linearGradient x1="0.105294" gradientTransform="matrix(0, 34.602604, 34.60627, 0, 366.5986, 557.926835)" y1="0" x2="0.404478" gradientUnits="userSpaceOnUse" y2="0" id="4d660c8479"><stop stop-opacity="1" stop-color="rgb(69.812012%, 49.798584%, 40.011597%)" offset="0"/><stop stop-opacity="1" stop-color="rgb(70.005798%, 49.813843%, 40.205383%)" offset="0.03125"/><stop stop-opacity="1" stop-color="rgb(70.202637%, 50.015259%, 40.39917%)" offset="0.0625"/><stop stop-opacity="1" stop-color="rgb(70.306396%, 50.19989%, 40.39917%)" offset="0.078125"/><stop stop-opacity="1" stop-color="rgb(70.507812%, 50.19989%, 40.393066%)" offset="0.09375"/><stop stop-opacity="1" stop-color="rgb(70.803833%, 50.19989%, 40.193176%)" offset="0.125"/><stop stop-opacity="1" stop-color="rgb(70.999146%, 50.19989%, 40.008545%)" offset="0.140625"/><stop stop-opacity="1" stop-color="rgb(70.999146%, 50.20752%, 40.208435%)" offset="0.15625"/><stop stop-opacity="1" stop-color="rgb(70.999146%, 50.40741%, 40.39917%)" offset="0.1875"/><stop stop-opacity="1" stop-color="rgb(71.002197%, 50.59967%, 40.39917%)" offset="0.25"/><stop stop-opacity="1" stop-color="rgb(71.105957%, 50.59967%, 40.39917%)" offset="0.28125"/><stop stop-opacity="1" stop-color="rgb(71.30127%, 50.59967%, 40.400696%)" offset="0.3125"/><stop stop-opacity="1" stop-color="rgb(71.398926%, 50.59967%, 40.504456%)" offset="0.34375"/><stop stop-opacity="1" stop-color="rgb(71.406555%, 50.59967%, 40.701294%)" offset="0.375"/><stop stop-opacity="1" stop-color="rgb(71.606445%, 50.617981%, 40.79895%)" offset="0.40625"/><stop stop-opacity="1" stop-color="rgb(71.812439%, 50.817871%, 40.79895%)" offset="0.421875"/><stop stop-opacity="1" stop-color="rgb(72.012329%, 51.004028%, 40.79895%)" offset="0.4375"/><stop stop-opacity="1" stop-color="rgb(72.348022%, 51.00708%, 40.79895%)" offset="0.5"/><stop stop-opacity="1" stop-color="rgb(72.499084%, 51.106262%, 40.79895%)" offset="0.53125"/><stop stop-opacity="1" stop-color="rgb(72.502136%, 51.301575%, 40.802002%)" offset="0.5625"/><stop stop-opacity="1" stop-color="rgb(72.605896%, 51.399231%, 40.905762%)" offset="0.59375"/><stop stop-opacity="1" stop-color="rgb(72.802734%, 51.403809%, 41.1026%)" offset="0.625"/><stop stop-opacity="1" stop-color="rgb(72.904968%, 51.603699%, 41.19873%)" offset="0.6875"/><stop stop-opacity="1" stop-color="rgb(73.01178%, 51.799011%, 41.19873%)" offset="0.703125"/><stop stop-opacity="1" stop-color="rgb(73.220825%, 51.799011%, 41.19873%)" offset="0.71875"/><stop stop-opacity="1" stop-color="rgb(73.524475%, 51.799011%, 41.207886%)" offset="0.75"/><stop stop-opacity="1" stop-color="rgb(73.908997%, 51.799011%, 41.407776%)" offset="0.78125"/><stop stop-opacity="1" stop-color="rgb(74.099731%, 51.815796%, 41.598511%)" offset="0.796875"/><stop stop-opacity="1" stop-color="rgb(74.099731%, 52.015686%, 41.598511%)" offset="0.8125"/><stop stop-opacity="1" stop-color="rgb(74.118042%, 52.017212%, 41.598511%)" offset="0.875"/><stop stop-opacity="1" stop-color="rgb(74.317932%, 52.017212%, 41.609192%)" offset="0.90625"/><stop stop-opacity="1" stop-color="rgb(74.499512%, 52.201843%, 41.810608%)" offset="0.9375"/><stop stop-opacity="1" stop-color="rgb(74.499512%, 52.351379%, 41.999817%)" offset="1"/></linearGradient><clipPath id="5d1b06aa39"><path d="M 307.507812 565.035156 L 421.9375 565.035156 L 421.9375 576.3125 L 307.507812 576.3125 Z M 307.507812 565.035156 " clip-rule="nonzero"/></clipPath><clipPath id="d62691f4d1"><path d="M 383.71875 576.3125 C 382.058594 576.3125 380.398438 576.234375 378.757812 576.078125 C 372.816406 575.519531 366.871094 573.988281 360.898438 573.988281 C 360 573.988281 359.101562 574.019531 358.203125 574.101562 C 355.074219 574.339844 351.945312 575.140625 348.773438 575.140625 C 348.683594 575.140625 348.589844 575.140625 348.496094 575.140625 C 343.296875 575.089844 338.441406 572.710938 333.339844 571.671875 C 330.808594 571.175781 328.25 571.003906 325.675781 571.003906 C 322.707031 571.003906 319.71875 571.234375 316.734375 571.464844 C 313.75 571.691406 310.769531 571.921875 307.816406 571.921875 C 307.714844 571.921875 307.609375 571.921875 307.507812 571.921875 C 307.597656 570.25 307.667969 568.804688 307.71875 567.601562 C 311.265625 567.125 315.960938 566.710938 321.441406 566.359375 C 334.945312 565.496094 353.234375 565.035156 370.925781 565.035156 C 391.039062 565.035156 410.378906 565.632812 421.082031 566.929688 C 421.375 568.898438 421.65625 571.285156 421.9375 574.046875 C 420.507812 574.140625 419.078125 574.1875 417.640625 574.1875 C 416.535156 574.1875 415.425781 574.160156 414.316406 574.101562 C 411.410156 573.894531 408.503906 573.554688 405.625 573.554688 C 405.023438 573.554688 404.417969 573.570312 403.816406 573.601562 C 400.148438 573.851562 396.632812 574.839844 393.070312 575.488281 C 389.992188 576.035156 386.855469 576.3125 383.71875 576.3125 " clip-rule="nonzero"/></clipPath><clipPath id="385d549879"><path d="M 383.71875 576.3125 C 382.058594 576.3125 380.398438 576.234375 378.757812 576.078125 C 372.816406 575.519531 366.871094 573.988281 360.898438 573.988281 C 360 573.988281 359.101562 574.019531 358.203125 574.101562 C 355.074219 574.339844 351.945312 575.140625 348.773438 575.140625 C 348.683594 575.140625 348.589844 575.140625 348.496094 575.140625 C 343.296875 575.089844 338.441406 572.710938 333.339844 571.671875 C 330.808594 571.175781 328.25 571.003906 325.675781 571.003906 C 322.707031 571.003906 319.71875 571.234375 316.734375 571.464844 C 313.75 571.691406 310.769531 571.921875 307.816406 571.921875 C 307.714844 571.921875 307.609375 571.921875 307.507812 571.921875 C 307.597656 570.25 307.667969 568.804688 307.71875 567.601562 C 311.265625 567.125 315.960938 566.710938 321.441406 566.359375 C 334.945312 565.496094 353.234375 565.035156 370.925781 565.035156 C 391.039062 565.035156 410.378906 565.632812 421.082031 566.929688 C 421.375 568.898438 421.65625 571.285156 421.9375 574.046875 C 420.507812 574.140625 419.078125 574.1875 417.640625 574.1875 C 416.535156 574.1875 415.425781 574.160156 414.316406 574.101562 C 411.410156 573.894531 408.503906 573.554688 405.625 573.554688 C 405.023438 573.554688 404.417969 573.570312 403.816406 573.601562 C 400.148438 573.851562 396.632812 574.839844 393.070312 575.488281 C 389.992188 576.035156 386.855469 576.3125 383.71875 576.3125 " clip-rule="nonzero"/></clipPath><linearGradient x1="0.205396" gradientTransform="matrix(0, 34.602604, 34.60627, 0, 366.5986, 557.926835)" y1="0" x2="0.531378" gradientUnits="userSpaceOnUse" y2="0" id="af1e70eb80"><stop stop-opacity="1" stop-color="rgb(14.498901%, 25.498962%, 36.099243%)" offset="0"/><stop stop-opacity="1" stop-color="rgb(14.498901%, 25.498962%, 36.099243%)" offset="0.0625"/><stop stop-opacity="1" stop-color="rgb(14.498901%, 25.511169%, 36.099243%)" offset="0.09375"/><stop stop-opacity="1" stop-color="rgb(14.498901%, 25.71106%, 36.099243%)" offset="0.125"/><stop stop-opacity="1" stop-color="rgb(14.498901%, 25.898743%, 36.100769%)" offset="0.1875"/><stop stop-opacity="1" stop-color="rgb(14.498901%, 25.898743%, 36.204529%)" offset="0.21875"/><stop stop-opacity="1" stop-color="rgb(14.498901%, 25.898743%, 36.401367%)" offset="0.25"/><stop stop-opacity="1" stop-color="rgb(14.498901%, 25.907898%, 36.508179%)" offset="0.3125"/><stop stop-opacity="1" stop-color="rgb(14.515686%, 26.107788%, 36.708069%)" offset="0.328125"/><stop stop-opacity="1" stop-color="rgb(14.715576%, 26.298523%, 36.898804%)" offset="0.34375"/><stop stop-opacity="1" stop-color="rgb(14.898682%, 26.298523%, 36.898804%)" offset="0.375"/><stop stop-opacity="1" stop-color="rgb(14.898682%, 26.298523%, 36.901855%)" offset="0.5"/><stop stop-opacity="1" stop-color="rgb(14.898682%, 26.298523%, 37.005615%)" offset="0.53125"/><stop stop-opacity="1" stop-color="rgb(14.898682%, 26.303101%, 37.200928%)" offset="0.5625"/><stop stop-opacity="1" stop-color="rgb(14.898682%, 26.408386%, 37.298584%)" offset="0.578125"/><stop stop-opacity="1" stop-color="rgb(14.898682%, 26.603699%, 37.298584%)" offset="0.59375"/><stop stop-opacity="1" stop-color="rgb(14.898682%, 26.699829%, 37.30011%)" offset="0.625"/><stop stop-opacity="1" stop-color="rgb(14.898682%, 26.699829%, 37.449646%)" offset="0.75"/><stop stop-opacity="1" stop-color="rgb(14.900208%, 26.701355%, 37.600708%)" offset="0.8125"/><stop stop-opacity="1" stop-color="rgb(15.003967%, 26.803589%, 37.704468%)" offset="0.84375"/><stop stop-opacity="1" stop-color="rgb(15.202332%, 27.001953%, 37.901306%)" offset="0.875"/><stop stop-opacity="1" stop-color="rgb(15.299988%, 27.099609%, 38.008118%)" offset="0.9375"/><stop stop-opacity="1" stop-color="rgb(15.299988%, 27.099609%, 38.208008%)" offset="1"/></linearGradient><clipPath id="d752073654"><path d="M 424.660156 264.410156 L 445.585938 264.410156 L 445.585938 285.332031 L 424.660156 285.332031 Z M 424.660156 264.410156 " clip-rule="nonzero"/></clipPath><clipPath id="59b5ded767"><path d="M 432.152344 264.964844 C 437.511719 263.300781 443.101562 266.332031 444.824219 271.671875 C 446.535156 276.964844 443.792969 282.597656 438.535156 284.421875 C 433.132812 286.296875 427.191406 283.496094 425.375 278.070312 C 423.539062 272.597656 426.636719 266.671875 432.152344 264.964844 Z M 432.152344 264.964844 " clip-rule="nonzero"/></clipPath><clipPath id="e90add998e"><path d="M 432.152344 264.964844 C 437.511719 263.300781 443.101562 266.332031 444.824219 271.671875 C 446.53125 276.964844 443.792969 282.597656 438.535156 284.421875 C 433.132812 286.296875 427.191406 283.496094 425.375 278.070312 C 423.539062 272.597656 426.632812 266.671875 432.152344 264.964844 " clip-rule="nonzero"/></clipPath><clipPath id="56f5fbb111"><path d="M 321.394531 264.410156 L 342.324219 264.410156 L 342.324219 285.332031 L 321.394531 285.332031 Z M 321.394531 264.410156 " clip-rule="nonzero"/></clipPath><clipPath id="8693efe53c"><path d="M 334.902344 264.964844 C 329.542969 263.300781 323.953125 266.332031 322.230469 271.671875 C 320.519531 276.964844 323.261719 282.597656 328.519531 284.421875 C 333.921875 286.296875 339.863281 283.496094 341.675781 278.070312 C 343.511719 272.597656 340.421875 266.671875 334.902344 264.964844 Z M 334.902344 264.964844 " clip-rule="nonzero"/></clipPath><clipPath id="f362442389"><path d="M 334.902344 264.964844 C 329.542969 263.300781 323.953125 266.332031 322.226562 271.671875 C 320.519531 276.964844 323.261719 282.597656 328.519531 284.421875 C 333.921875 286.296875 339.863281 283.496094 341.675781 278.070312 C 343.511719 272.597656 340.417969 266.671875 334.902344 264.964844 " clip-rule="nonzero"/></clipPath></defs><path fill="#a63b29" d="M 203.246094 213.734375 C 204.207031 212.484375 210.660156 211.320312 212.773438 208.738281 C 219.167969 200.921875 231.769531 188.519531 256.285156 180.644531 C 288.898438 170.164062 333.875 171.15625 364.25 171.425781 C 394.617188 171.15625 439.605469 170.164062 472.207031 180.644531 C 496.722656 188.519531 509.332031 200.921875 515.726562 208.738281 C 517.832031 211.320312 524.289062 212.484375 525.25 213.734375 C 524.746094 214.324219 535.074219 226.890625 526.121094 238.046875 C 509.304688 259.007812 463.542969 264.789062 424.183594 265.457031 C 397.75 265.902344 374.199219 265.628906 364.25 265.457031 C 354.292969 265.628906 330.746094 265.902344 304.316406 265.457031 C 264.953125 264.789062 219.1875 259.007812 202.375 238.046875 C 193.425781 226.890625 203.742188 214.324219 203.246094 213.734375 " fill-opacity="1" fill-rule="nonzero"/><path fill="#d79473" d="M 281.164062 572.832031 C 282.738281 574.613281 303.628906 552.722656 302.257812 550.753906 C 281.769531 521.351562 256.472656 468.511719 252 459.183594 C 252 459.183594 223.964844 476.292969 226.796875 496.882812 C 229.460938 516.226562 241.320312 527.683594 281.164062 572.832031 " fill-opacity="1" fill-rule="nonzero"/><path fill="#d79473" d="M 282.429688 588.113281 C 278.839844 583.332031 272.265625 576.925781 280.671875 573.640625 C 289.074219 570.351562 300.578125 585.667969 300.578125 585.667969 L 282.429688 588.113281 " fill-opacity="1" fill-rule="nonzero"/><path fill="#d79473" d="M 293.125 542.113281 C 293.125 542.113281 303.363281 544.261719 308.207031 548.5 C 318.472656 557.472656 323.878906 570.34375 324.296875 575.207031 C 324.710938 580.058594 304.175781 595.945312 298.441406 599.261719 C 292.707031 602.574219 286.449219 597.761719 281.007812 594.429688 C 275.566406 591.105469 272.175781 584.628906 280.375 583.027344 C 288.574219 581.429688 290.941406 585.355469 290.941406 585.355469 L 293.703125 583.171875 C 293.703125 583.171875 276.160156 577.816406 280.347656 563.824219 C 284.53125 549.832031 293.125 542.113281 293.125 542.113281 " fill-opacity="1" fill-rule="nonzero"/><path fill="#0e0f0e" d="M 248.613281 460.167969 C 261.664062 446.210938 297.007812 424.785156 310.84375 411.335938 C 328.769531 423.242188 320.519531 455.011719 321.3125 455.875 C 302.019531 470.644531 267.441406 495.984375 259.523438 503.28125 C 242.019531 505.261719 248.613281 460.167969 248.613281 460.167969 " fill-opacity="1" fill-rule="nonzero"/><path fill="#0e0f0e" d="M 294.761719 535.59375 C 291.46875 540.246094 271.875 560.480469 267.441406 564.320312 C 239.917969 528.742188 232.925781 517.144531 227.554688 505.898438 C 220.441406 491 227.472656 476.058594 248.613281 460.167969 C 256.53125 471.566406 271.972656 497.054688 294.761719 535.59375 " fill-opacity="1" fill-rule="nonzero"/><path fill="#2f2f32" d="M 255.285156 555.941406 L 269.890625 574.082031 L 305.265625 541.125 L 290.660156 522.984375 L 255.285156 555.941406 " fill-opacity="1" fill-rule="nonzero"/><path fill="#211a18" d="M 330.3125 767.445312 C 330.3125 767.445312 333.71875 773.117188 331.738281 777.558594 C 329.757812 781.996094 324.761719 784.644531 324.761719 784.644531 L 330.3125 767.445312 " fill-opacity="1" fill-rule="nonzero"/><path fill="#211a18" d="M 276.851562 790.011719 C 276.851562 790.011719 272.78125 797.289062 275.125 801.109375 C 277.46875 804.933594 278.207031 809.988281 303.117188 808.753906 C 328.03125 807.523438 328.277344 793.21875 328.277344 793.21875 L 327.347656 782.613281 L 276.851562 790.011719 " fill-opacity="1" fill-rule="nonzero"/><path fill="#2f2b2a" d="M 279.265625 779.148438 C 279.265625 779.148438 273.519531 787.667969 276.605469 793.585938 C 279.6875 799.507812 294.117188 802.589844 313.230469 798.644531 C 332.347656 794.699219 326.671875 777.191406 328.894531 773.734375 C 331.113281 770.285156 332.675781 765.082031 331.738281 761.15625 C 330.796875 757.230469 279.265625 779.148438 279.265625 779.148438 " fill-opacity="1" fill-rule="nonzero"/><path fill="#2f2b2a" d="M 288.441406 771.824219 C 288.441406 771.824219 277.960938 776.140625 278.699219 782.242188 C 279.441406 788.347656 314.773438 792.785156 324.761719 784.644531 C 324.761719 784.644531 326.441406 785.210938 327.347656 774.476562 C 328.253906 763.742188 332.53125 761.898438 331.609375 759.675781 C 330.679688 757.457031 329.203125 750.984375 329.203125 750.984375 L 288.441406 771.824219 " fill-opacity="1" fill-rule="nonzero"/><path fill="#373538" d="M 289.429688 770.035156 C 289.429688 770.035156 284.621094 774.65625 286.839844 779.464844 C 289.058594 784.28125 314.773438 784.089844 318.65625 780.761719 C 322.542969 777.433594 325.320312 773.550781 325.320312 770.035156 C 325.320312 766.519531 328.300781 745.382812 326.136719 739.199219 C 324.761719 735.261719 319.769531 728.003906 312.492188 730.820312 C 305.835938 733.40625 301.640625 741.550781 301.640625 741.550781 L 289.429688 770.035156 " fill-opacity="1" fill-rule="nonzero"/><path fill="#2f2b2a" d="M 285.359375 773.734375 L 299.050781 765.597656 L 307.375 741.550781 C 307.375 741.550781 300.15625 735.445312 296.367188 744.324219 C 296.367188 744.324219 289.242188 770.589844 285.359375 773.734375 " fill-opacity="1" fill-rule="nonzero"/><path fill="#2f2b2a" d="M 314.585938 763.746094 C 314.585938 763.746094 311.628906 739.886719 319.027344 737.851562 C 326.425781 735.816406 329.386719 743.585938 329.386719 743.585938 L 330.3125 752.464844 L 326.425781 773.734375 L 314.585938 763.746094 " fill-opacity="1" fill-rule="nonzero"/><path fill="#211a18" d="M 318.164062 745.742188 C 312.738281 745.742188 307.3125 745.742188 301.886719 745.742188 C 300.457031 745.742188 300.453125 747.960938 301.886719 747.960938 C 307.3125 747.960938 312.738281 747.960938 318.164062 747.960938 C 319.59375 747.960938 319.59375 745.742188 318.164062 745.742188 " fill-opacity="1" fill-rule="nonzero"/><path fill="#211a18" d="M 317.175781 751.292969 C 311.898438 751.292969 306.617188 751.292969 301.335938 751.292969 C 299.910156 751.292969 299.90625 753.511719 301.335938 753.511719 C 306.617188 753.511719 311.898438 753.511719 317.175781 753.511719 C 318.605469 753.511719 318.609375 751.292969 317.175781 751.292969 " fill-opacity="1" fill-rule="nonzero"/><path fill="#211a18" d="M 316.3125 756.71875 C 310.847656 756.71875 305.378906 756.71875 299.914062 756.71875 C 298.484375 756.71875 298.480469 758.9375 299.914062 758.9375 C 305.378906 758.9375 310.847656 758.9375 316.3125 758.9375 C 317.742188 758.9375 317.746094 756.71875 316.3125 756.71875 " fill-opacity="1" fill-rule="nonzero"/><path fill="#211a18" d="M 391.765625 767.445312 C 391.765625 767.445312 388.359375 773.117188 390.339844 777.558594 C 392.320312 781.996094 397.3125 784.644531 397.3125 784.644531 L 391.765625 767.445312 " fill-opacity="1" fill-rule="nonzero"/><path fill="#211a18" d="M 445.226562 790.011719 C 445.226562 790.011719 449.292969 797.289062 446.953125 801.109375 C 444.609375 804.933594 443.871094 809.988281 418.957031 808.753906 C 394.046875 807.523438 393.800781 793.21875 393.800781 793.21875 L 394.730469 782.613281 L 445.226562 790.011719 " fill-opacity="1" fill-rule="nonzero"/><path fill="#2f2b2a" d="M 442.8125 779.148438 C 442.8125 779.148438 448.558594 787.667969 445.472656 793.585938 C 442.390625 799.507812 427.960938 802.589844 408.847656 798.644531 C 389.730469 794.699219 395.402344 777.191406 393.183594 773.734375 C 390.964844 770.285156 389.398438 765.082031 390.339844 761.15625 C 391.277344 757.230469 442.8125 779.148438 442.8125 779.148438 " fill-opacity="1" fill-rule="nonzero"/><path fill="#2f2b2a" d="M 433.632812 771.824219 C 433.632812 771.824219 444.113281 776.140625 443.375 782.242188 C 442.636719 788.347656 407.304688 792.785156 397.3125 784.644531 C 397.3125 784.644531 395.636719 785.210938 394.730469 774.476562 C 393.824219 763.742188 389.542969 761.898438 390.46875 759.675781 C 391.394531 757.457031 392.875 750.984375 392.875 750.984375 L 433.632812 771.824219 " fill-opacity="1" fill-rule="nonzero"/><path fill="#373538" d="M 432.644531 770.035156 C 432.644531 770.035156 437.457031 774.65625 435.234375 779.464844 C 433.015625 784.28125 407.304688 784.089844 403.421875 780.761719 C 399.535156 777.433594 396.757812 773.550781 396.757812 770.035156 C 396.757812 766.519531 393.777344 745.382812 395.9375 739.199219 C 397.3125 735.261719 402.308594 728.003906 409.585938 730.820312 C 416.242188 733.40625 420.4375 741.550781 420.4375 741.550781 L 432.644531 770.035156 " fill-opacity="1" fill-rule="nonzero"/><path fill="#2f2b2a" d="M 436.714844 773.734375 L 423.027344 765.597656 L 414.703125 741.550781 C 414.703125 741.550781 421.917969 735.445312 425.707031 744.324219 C 425.707031 744.324219 432.832031 770.589844 436.714844 773.734375 " fill-opacity="1" fill-rule="nonzero"/><path fill="#2f2b2a" d="M 407.488281 763.746094 C 407.488281 763.746094 410.449219 739.886719 403.050781 737.851562 C 395.648438 735.816406 392.6875 743.585938 392.6875 743.585938 L 391.765625 752.464844 L 395.648438 773.734375 L 407.488281 763.746094 " fill-opacity="1" fill-rule="nonzero"/><path fill="#211a18" d="M 403.910156 745.742188 C 409.339844 745.742188 414.765625 745.742188 420.191406 745.742188 C 421.621094 745.742188 421.621094 747.960938 420.191406 747.960938 C 414.765625 747.960938 409.339844 747.960938 403.910156 747.960938 C 402.484375 747.960938 402.480469 745.742188 403.910156 745.742188 " fill-opacity="1" fill-rule="nonzero"/><path fill="#211a18" d="M 404.898438 751.292969 C 410.179688 751.292969 415.457031 751.292969 420.742188 751.292969 C 422.167969 751.292969 422.171875 753.511719 420.742188 753.511719 C 415.457031 753.511719 410.179688 753.511719 404.898438 753.511719 C 403.472656 753.511719 403.46875 751.292969 404.898438 751.292969 " fill-opacity="1" fill-rule="nonzero"/><path fill="#211a18" d="M 405.765625 756.71875 C 411.230469 756.71875 416.695312 756.71875 422.164062 756.71875 C 423.59375 756.71875 423.59375 758.9375 422.164062 758.9375 C 416.695312 758.9375 411.230469 758.9375 405.765625 758.9375 C 404.332031 758.9375 404.332031 756.71875 405.765625 756.71875 " fill-opacity="1" fill-rule="nonzero"/><path fill="#294b6b" d="M 431.585938 755.253906 C 425.371094 757.144531 400.007812 759.351562 391.824219 759.542969 C 390.460938 740.988281 378.492188 652.785156 373.351562 624.894531 C 372.074219 617.980469 355.746094 617.636719 354.128906 624.882812 C 353.125 629.355469 338.980469 730.785156 334.265625 760.507812 C 320.5625 758.109375 305.675781 756.453125 294.222656 753.378906 C 294.222656 753.378906 306.570312 595.335938 307.71875 567.601562 C 329.953125 564.617188 397.140625 564.027344 421.082031 566.929688 C 425.320312 595.539062 428.425781 714.308594 431.585938 755.253906 " fill-opacity="1" fill-rule="nonzero"/><path fill="#d79473" d="M 578.699219 411.910156 C 580.210938 409.6875 552.414062 391.453125 550.660156 393.492188 C 524.476562 423.972656 474.785156 465.699219 466.011719 473.078125 C 466.011719 473.078125 490.417969 500.589844 511.402344 492.28125 C 531.109375 484.476562 540.421875 468.210938 578.699219 411.910156 " fill-opacity="1" fill-rule="nonzero"/><path fill="#0e0f0e" d="M 501.261719 495.539062 C 480.992188 491.929688 444.011719 482.207031 423.722656 477.515625 C 423.683594 452.570312 422.988281 415.816406 423.28125 414.496094 C 448.003906 423.597656 491.304688 440.644531 502.554688 443.585938 C 514.769531 459.195312 506.3125 478.113281 501.261719 495.539062 " fill-opacity="1" fill-rule="nonzero"/><path fill="#cd8669" d="M 551.691406 343.363281 L 570.902344 305.582031 C 570.902344 305.582031 577.984375 292.609375 586.542969 295.90625 C 595.105469 299.199219 594.308594 308.289062 591.054688 316.753906 C 587.804688 325.21875 580.757812 347.507812 580.757812 347.507812 C 580.757812 347.507812 623.246094 363.230469 612.011719 391.546875 C 603.203125 413.753906 587.960938 415.335938 567.488281 408.277344 C 532.964844 396.382812 551.691406 343.363281 551.691406 343.363281 " fill-opacity="1" fill-rule="nonzero"/><path fill="#d79473" d="M 615.226562 362.402344 C 624.386719 363.265625 626.246094 379.804688 617.644531 389.074219 C 609.042969 398.339844 601.195312 394.453125 600.019531 386.75 C 598.851562 379.050781 615.226562 362.402344 615.226562 362.402344 " fill-opacity="1" fill-rule="nonzero"/><path fill="#d79473" d="M 603.253906 347.753906 C 612.253906 349 619.105469 358.285156 614.050781 367.757812 C 608.988281 377.222656 601.742188 390.6875 595.199219 386.921875 C 588.667969 383.164062 584.53125 379.105469 587.007812 373.449219 C 589.488281 367.796875 603.253906 347.753906 603.253906 347.753906 " fill-opacity="1" fill-rule="nonzero"/><path fill="#d79473" d="M 583.5 337.273438 C 585.808594 331.992188 599.019531 331.933594 602.863281 340.804688 C 606.707031 349.675781 590.550781 380.355469 583.628906 376.429688 C 576.714844 372.5 571.449219 364.808594 574.203125 357.46875 C 576.957031 350.140625 583.5 337.273438 583.5 337.273438 " fill-opacity="1" fill-rule="nonzero"/><path fill="#d79473" d="M 564.617188 406.523438 C 556.996094 403.179688 542.945312 397.714844 541.257812 380.796875 C 539.578125 363.882812 537.339844 347.179688 547.730469 343.1875 C 558.109375 339.195312 576.339844 339.082031 580.933594 337.949219 C 585.523438 336.8125 590.875 359.957031 573.5625 363.160156 C 564.769531 365.601562 559.007812 362.054688 559.007812 362.054688 C 559.007812 362.054688 587.730469 373.28125 578.316406 397.914062 C 575.382812 408.765625 564.617188 406.523438 564.617188 406.523438 " fill-opacity="1" fill-rule="nonzero"/><path fill="#0e0f0e" d="M 536.460938 405.734375 C 542.105469 408.308594 567.859375 425.488281 572.90625 429.554688 C 541.851562 469.539062 531.277344 480.328125 520.699219 489.191406 C 506.679688 500.9375 489.371094 496.675781 467.820312 476.671875 C 477.976562 464.882812 501.207031 441.082031 536.460938 405.734375 " fill-opacity="1" fill-rule="nonzero"/><path fill="#2f2f32" d="M 566.898438 445.398438 L 582.597656 424.367188 L 539.855469 392.464844 L 524.160156 413.496094 L 566.898438 445.398438 " fill-opacity="1" fill-rule="nonzero"/><g clip-path="url(#352783b5f7)"><g clip-path="url(#beb31740a9)"><g clip-path="url(#ce723517c9)"><path fill="url(#e0419e2626)" d="M 318.96875 561.664062 L 426.003906 561.664062 L 426.003906 574.046875 L 318.96875 574.046875 Z M 318.96875 561.664062 " fill-rule="nonzero"/></g></g></g><g clip-path="url(#149caea05d)"><g clip-path="url(#02e2c2b56f)"><g clip-path="url(#3c3d8e82b4)"><path fill="url(#4d660c8479)" d="M 307.191406 561.570312 L 321.441406 561.570312 L 321.441406 571.921875 L 307.191406 571.921875 Z M 307.191406 561.570312 " fill-rule="nonzero"/></g></g></g><g clip-path="url(#5d1b06aa39)"><g clip-path="url(#d62691f4d1)"><g clip-path="url(#385d549879)"><path fill="url(#af1e70eb80)" d="M 307.507812 565.035156 L 421.9375 565.035156 L 421.9375 576.3125 L 307.507812 576.3125 Z M 307.507812 565.035156 " fill-rule="nonzero"/></g></g></g><path fill="#0e0f0e" d="M 298.175781 557.066406 L 298.226562 557.113281 C 298.523438 557.953125 298.917969 558.746094 299.363281 559.492188 C 304.316406 567.710938 311.054688 570.535156 335.421875 567.609375 C 346.414062 574.296875 351.417969 570.878906 364.390625 569.839844 C 365.039062 569.792969 365.683594 569.742188 366.324219 569.691406 L 366.375 569.691406 C 380.835938 568.847656 385.34375 573.40625 407.234375 567.214844 C 413.820312 568.847656 426.75 573.308594 433.628906 560.628906 C 438.535156 551.714844 432.34375 535.125 431.105469 517.792969 C 430.511719 509.328125 431.402344 486 431.152344 463.371094 C 431.007812 439.75 429.671875 416.921875 424.171875 412.460938 C 418.03125 407.511719 408.273438 404.289062 396.632812 402.457031 C 387.871094 401.070312 378.113281 400.480469 368.007812 400.480469 C 360.335938 400.480469 344.53125 401.417969 331.410156 403.648438 C 325.566406 404.636719 320.214844 405.925781 316.453125 407.511719 C 313.148438 408.882812 309.238281 412.460938 307.855469 414.882812 C 300.582031 427.609375 301.472656 454.539062 301.148438 469.015625 C 300.75 488.824219 301.148438 514.625 299.363281 524.53125 C 297.1875 537.007812 294.859375 548.84375 298.175781 557.066406 " fill-opacity="1" fill-rule="nonzero"/><path fill="#595a60" d="M 331.410156 403.648438 C 344.53125 401.417969 360.335938 400.480469 368.007812 400.480469 C 378.113281 400.480469 387.871094 401.070312 396.632812 402.457031 C 398.863281 413.152344 402.082031 428.410156 402.082031 428.410156 C 402.082031 428.410156 391.996094 422.585938 380.292969 422.964844 C 376.242188 423.09375 371.449219 424.15625 367.078125 425.253906 C 367.464844 430.90625 367.835938 436.582031 368.007812 442.226562 C 368.15625 448.714844 368.304688 455.148438 368.253906 461.636719 C 368.253906 468.125 365.878906 468.074219 365.976562 461.585938 C 366.171875 448.996094 365.976562 436.441406 365.546875 423.804688 C 362.640625 421.167969 359.03125 418.992188 353.25 421.226562 C 345.820312 424.046875 330.269531 429.394531 330.269531 429.394531 L 331.410156 403.648438 " fill-opacity="1" fill-rule="nonzero"/><path fill="#2f2f32" d="M 330.269531 429.394531 C 337.597656 423.652344 347.417969 418.132812 350.128906 417.117188 C 352.839844 416.101562 363.503906 421.40625 366.222656 422.898438 C 368.984375 421.460938 380.257812 417.414062 382.71875 418.15625 C 385.179688 418.898438 395.792969 423.652344 402.082031 428.410156 C 401.191406 420.238281 398.617188 411.71875 396.882812 402.953125 C 396.882812 402.953125 392.824219 390.472656 388.5625 385.523438 C 384.304688 380.570312 348.445312 379.679688 343.839844 385.523438 C 343.445312 386.066406 343 386.660156 342.652344 387.253906 C 338.6875 393.394531 335.765625 402.953125 335.765625 402.953125 L 330.269531 429.394531 " fill-opacity="1" fill-rule="nonzero"/><path fill="#595a60" d="M 360.382812 419.542969 C 362.261719 420.78125 364.160156 421.695312 366.226562 422.910156 C 367.714844 421.871094 369.046875 420.832031 370.339844 419.890625 C 393.910156 401.714844 390 392.109375 388.5625 385.523438 C 384.304688 380.570312 348.445312 379.679688 343.839844 385.523438 C 343.445312 386.066406 343 386.660156 342.652344 387.253906 C 340.375 397.949219 348.496094 411.421875 360.382812 419.542969 " fill-opacity="1" fill-rule="nonzero"/><path fill="#d79473" d="M 387.140625 354.359375 C 386.234375 370.710938 386.316406 385.554688 386.808594 399.773438 C 381.050781 409.699219 374.3125 417.121094 366.769531 422.480469 C 356.84375 416.664062 349.242188 408.945312 345.0625 398.4375 C 346.277344 381.097656 346.519531 365.707031 345.0625 353.6875 L 387.140625 354.359375 " fill-opacity="1" fill-rule="nonzero"/><path fill="#595a60" d="M 362.558594 437.789062 C 364.09375 436.367188 364.183594 433.972656 362.761719 432.433594 C 361.339844 430.902344 358.945312 430.8125 357.40625 432.234375 C 355.875 433.65625 355.785156 436.050781 357.203125 437.589844 C 358.628906 439.121094 361.023438 439.210938 362.558594 437.789062 " fill-opacity="1" fill-rule="nonzero"/><path fill="#595a60" d="M 362.558594 456.789062 C 364.09375 455.371094 364.183594 452.972656 362.761719 451.441406 C 361.339844 449.902344 358.945312 449.8125 357.40625 451.234375 C 355.875 452.65625 355.785156 455.054688 357.203125 456.589844 C 358.628906 458.121094 361.023438 458.214844 362.558594 456.789062 " fill-opacity="1" fill-rule="nonzero"/><path fill="#201918" d="M 400.265625 401.296875 L 422.238281 406.34375 C 428.226562 405.804688 433.722656 412.476562 434.511719 421.246094 C 434.511719 421.246094 430.960938 485.136719 433.066406 508.480469 C 433.972656 518.605469 440.894531 561.070312 440.894531 561.070312 C 442.273438 576.339844 392.863281 577.914062 392.863281 577.914062 C 385.1875 578.820312 371.015625 575.070312 370.226562 566.300781 L 364.410156 509.210938 L 400.265625 401.296875 " fill-opacity="1" fill-rule="nonzero"/><path fill="#e6ac2b" d="M 403.324219 401.019531 L 425.292969 406.070312 C 431.285156 405.53125 436.785156 412.199219 437.574219 420.96875 C 437.574219 420.96875 434.019531 484.863281 436.121094 508.207031 C 437.035156 518.328125 443.957031 560.796875 443.957031 560.796875 C 445.328125 576.066406 395.921875 577.640625 395.921875 577.640625 C 388.246094 578.546875 374.074219 574.796875 373.285156 566.027344 L 367.464844 508.9375 L 403.324219 401.019531 " fill-opacity="1" fill-rule="nonzero"/><path fill="#e0dfdf" d="M 435.59375 498.765625 C 435.59375 498.765625 427.765625 498.953125 420.371094 498.871094 C 419.75 486.976562 417.683594 445.84375 418.472656 436.246094 C 419.171875 427.648438 423.75 411.105469 424.035156 404.457031 C 424.035156 404.457031 415.253906 401.84375 410.125 402.582031 C 405.824219 410.222656 401.734375 447.621094 402.664062 464.148438 C 403.425781 477.640625 403.660156 492.449219 403.726562 499.945312 C 394.492188 501.136719 374.449219 503.839844 367.460938 504.976562 L 367.648438 523.136719 C 374.660156 522.503906 399.277344 519.335938 408.4375 517.550781 C 417.59375 515.777344 437.105469 516.246094 437.105469 516.246094 L 435.59375 498.765625 " fill-opacity="1" fill-rule="nonzero"/><path fill="#e0dfdf" d="M 442.445312 551.398438 C 442.445312 551.398438 385.6875 561.46875 372.941406 562.617188 L 369.398438 542.59375 C 376.40625 541.960938 396.640625 540.488281 406.167969 539.28125 C 415.699219 538.074219 439.34375 531.582031 439.34375 531.582031 L 442.445312 551.398438 " fill-opacity="1" fill-rule="nonzero"/><path fill="#201918" d="M 365.746094 505.195312 L 364.410156 509.210938 L 369.90625 563.128906 L 372.960938 562.855469 L 367.464844 508.9375 L 369.304688 503.40625 L 365.746094 505.195312 " fill-opacity="1" fill-rule="nonzero"/><path fill="#201918" d="M 332.769531 401.296875 L 310.800781 406.34375 C 304.8125 405.804688 299.3125 412.476562 298.523438 421.246094 C 298.523438 421.246094 302.074219 485.136719 299.972656 508.480469 C 299.0625 518.605469 292.140625 561.070312 292.140625 561.070312 C 290.765625 576.339844 340.175781 577.914062 340.175781 577.914062 C 347.847656 578.820312 362.023438 575.070312 362.8125 566.300781 L 368.628906 509.210938 L 332.769531 401.296875 " fill-opacity="1" fill-rule="nonzero"/><path fill="#e6ac2b" d="M 329.714844 401.019531 L 307.742188 406.070312 C 301.753906 405.53125 296.257812 412.199219 295.46875 420.96875 C 295.46875 420.96875 299.015625 484.863281 296.917969 508.207031 C 296.003906 518.328125 289.082031 560.796875 289.082031 560.796875 C 287.707031 576.066406 337.117188 577.640625 337.117188 577.640625 C 344.789062 578.546875 358.960938 574.796875 359.75 566.027344 L 365.574219 508.9375 L 329.714844 401.019531 " fill-opacity="1" fill-rule="nonzero"/><path fill="#e0dfdf" d="M 297.445312 498.765625 C 297.445312 498.765625 305.273438 498.953125 312.667969 498.871094 C 313.285156 486.976562 315.351562 445.84375 314.566406 436.246094 C 313.867188 427.648438 309.285156 411.105469 309.003906 404.457031 C 309.003906 404.457031 317.78125 401.84375 322.914062 402.582031 C 327.210938 410.222656 331.304688 447.621094 330.371094 464.148438 C 329.617188 477.640625 329.378906 492.449219 329.3125 499.945312 C 338.542969 501.136719 358.589844 503.839844 365.578125 504.976562 L 365.390625 523.136719 C 358.375 522.503906 333.761719 519.335938 324.601562 517.550781 C 315.441406 515.777344 295.933594 516.246094 295.933594 516.246094 L 297.445312 498.765625 " fill-opacity="1" fill-rule="nonzero"/><path fill="#e0dfdf" d="M 290.59375 551.398438 C 290.59375 551.398438 347.351562 561.46875 360.097656 562.617188 L 363.640625 542.59375 C 356.632812 541.960938 336.398438 540.488281 326.871094 539.28125 C 317.339844 538.074219 293.691406 531.582031 293.691406 531.582031 L 290.59375 551.398438 " fill-opacity="1" fill-rule="nonzero"/><path fill="#201918" d="M 367.292969 505.195312 L 368.628906 509.210938 L 363.132812 563.128906 L 360.078125 562.855469 L 365.574219 508.9375 L 363.734375 503.40625 L 367.292969 505.195312 " fill-opacity="1" fill-rule="nonzero"/><path fill="#d79473" d="M 450.132812 281.359375 C 455.328125 263.402344 466.898438 239.871094 479.523438 236.214844 C 485.503906 234.488281 514.835938 237.480469 510.71875 276.617188 C 506.3125 318.472656 469.804688 341.757812 447.320312 329 C 448.132812 314.269531 449.035156 296.132812 450.132812 281.359375 " fill-opacity="1" fill-rule="nonzero"/><path fill="#cd8669" d="M 487.191406 258.988281 C 475.445312 257.941406 467 266.222656 461.875 281.953125 C 478.265625 285.261719 478.054688 308.574219 458.742188 315.097656 C 474.839844 314.851562 487.617188 301.730469 492.671875 289 C 499.71875 271.253906 493.449219 259.542969 487.191406 258.988281 " fill-opacity="1" fill-rule="nonzero"/><path fill="#d79473" d="M 276.183594 281.363281 C 269.5 263.410156 254.617188 239.875 238.378906 236.222656 C 230.6875 234.492188 192.964844 237.488281 198.261719 276.625 C 203.929688 318.476562 250.878906 341.761719 279.800781 329.003906 C 278.757812 314.273438 277.59375 296.136719 276.183594 281.363281 " fill-opacity="1" fill-rule="nonzero"/><path fill="#cd8669" d="M 228.519531 258.988281 C 243.625 257.941406 254.488281 266.222656 261.078125 281.953125 C 239.996094 285.261719 240.265625 308.574219 265.109375 315.097656 C 244.402344 314.851562 227.972656 301.730469 221.472656 289 C 212.40625 271.253906 220.472656 259.539062 228.519531 258.988281 " fill-opacity="1" fill-rule="nonzero"/><path fill="#d79473" d="M 253.5625 178.460938 C 246.441406 194.550781 256.535156 335.660156 272.675781 355.546875 C 299.097656 388.085938 350.882812 394.796875 365.683594 394.683594 C 381.535156 394.570312 444.710938 389.613281 465.664062 354.066406 C 481.652344 326.941406 491.359375 200.878906 486.191406 185.941406 C 468.714844 135.476562 424.691406 134.097656 367.121094 134.523438 C 313.269531 134.917969 272.039062 136.710938 253.5625 178.460938 " fill-opacity="1" fill-rule="nonzero"/><path fill="#ffffff" d="M 416.4375 280.230469 C 416.183594 267.394531 421.09375 238.925781 447.023438 251.355469 C 472.957031 263.789062 463.21875 284.824219 461.058594 287.371094 C 444.464844 306.921875 416.898438 303.277344 416.4375 280.230469 " fill-opacity="1" fill-rule="nonzero"/><path fill="#1a1411" d="M 465.023438 265.113281 L 465.023438 265.144531 C 464.703125 262.457031 460.046875 252.71875 452.308594 247.011719 C 448.472656 244.910156 443.882812 243.496094 438.695312 244.246094 C 418.132812 247.214844 416.226562 272.597656 416.226562 272.597656 C 414.847656 276.886719 417.105469 272.71875 417.105469 272.71875 C 422.378906 257.792969 427.375 252.648438 440.820312 251.945312 C 454.261719 251.246094 460.914062 263.320312 462.617188 266.648438 C 464.316406 269.972656 465.023438 265.113281 465.023438 265.113281 " fill-opacity="1" fill-rule="nonzero"/><path fill="#33537f" d="M 431.214844 257.109375 C 441.148438 254.1875 451.269531 259.992188 454.398438 269.863281 C 457.484375 279.578125 452.648438 289.832031 443.070312 293.308594 C 432.992188 296.96875 421.660156 291.9375 418.210938 281.785156 C 414.695312 271.449219 420.738281 260.1875 431.214844 257.109375 " fill-opacity="1" fill-rule="nonzero"/><path fill="#40678d" d="M 453.273438 271.214844 C 455.160156 278.949219 451.636719 288.226562 442.695312 291.894531 C 433.375 294.960938 423.421875 289.917969 420.214844 282.316406 C 423.671875 278.550781 429.683594 274.144531 436.101562 270.671875 C 441.789062 270.320312 448.140625 270.433594 453.273438 271.214844 " fill-opacity="1" fill-rule="nonzero"/><g clip-path="url(#d752073654)"><g clip-path="url(#59b5ded767)"><g clip-path="url(#e90add998e)"><path fill="#111010" d="M 446.53125 263.222656 L 423.460938 263.300781 L 423.542969 286.378906 L 446.613281 286.296875 Z M 446.53125 263.222656 " fill-opacity="1" fill-rule="nonzero"/></g></g></g><path fill="#ffffff" d="M 428.945312 261.859375 C 433.902344 260.335938 437.59375 263.324219 438.128906 267.003906 C 438.011719 268.988281 435.792969 269.628906 433.480469 271.039062 C 431.277344 272.363281 428.890625 275.074219 426.652344 273.589844 C 422.222656 269.09375 424.523438 263.21875 428.945312 261.859375 " fill-opacity="1" fill-rule="nonzero"/><path fill="#508da1" d="M 439.742188 291.921875 C 448.769531 290.351562 454.664062 279.976562 450.535156 278.242188 C 448.382812 278.246094 448.394531 280.273438 446.082031 282.460938 C 443.304688 285.046875 441.035156 286.09375 438.871094 286.515625 C 437.035156 286.816406 434.132812 286.988281 431.460938 286.007812 C 428.347656 284.925781 426.820312 282.632812 425.101562 284.214844 C 422.925781 287.894531 433.066406 293.148438 439.742188 291.921875 " fill-opacity="1" fill-rule="nonzero"/><path fill="#ffffff" d="M 442.113281 284.460938 C 444.074219 282.914062 443.480469 280.058594 441.945312 279.074219 C 440.9375 278.546875 440.058594 279.644531 438.957031 280.347656 C 437.90625 281.027344 436.007812 281.613281 436.203125 282.945312 C 437.292969 285.980469 440.53125 285.851562 442.113281 284.460938 " fill-opacity="1" fill-rule="nonzero"/><path fill="#40678d" d="M 441.511719 261.890625 C 442.496094 260.402344 445.382812 260.183594 446.761719 261.566406 C 448.164062 262.96875 447.988281 264.628906 447.074219 265.695312 C 446.085938 266.847656 444.707031 265.921875 443.578125 264.824219 C 442.34375 263.625 440.714844 263.085938 441.511719 261.890625 " fill-opacity="1" fill-rule="nonzero"/><path fill="#40678d" d="M 439.574219 261.496094 C 438.949219 260.816406 438.867188 259.574219 439.757812 258.910156 C 440.640625 258.253906 441.519531 258.597656 442.03125 259.175781 C 442.585938 259.898438 441.941406 260.390625 441.304688 260.917969 C 440.609375 261.492188 440.160156 261.957031 439.574219 261.496094 " fill-opacity="1" fill-rule="nonzero"/><path fill="#ad4d46" d="M 392.519531 292.367188 C 396.882812 291.972656 412.933594 295.148438 412.84375 304.046875 C 412.742188 312.957031 401.699219 312.632812 401.699219 312.632812 C 401.699219 312.632812 414.617188 315.171875 415.84375 305.523438 C 417.699219 291.050781 392.519531 292.367188 392.519531 292.367188 " fill-opacity="1" fill-rule="nonzero"/><path fill="#ad4d46" d="M 395.726562 309.417969 C 394.328125 306.648438 390.046875 306.035156 387.976562 308.320312 C 387.472656 308.875 388.261719 309.835938 388.90625 309.46875 C 391.015625 308.261719 391.847656 310.351562 393.257812 311.410156 C 394.539062 312.367188 396.484375 310.917969 395.726562 309.417969 " fill-opacity="1" fill-rule="nonzero"/><path fill="#1a1411" d="M 466.003906 215.316406 C 465.429688 218.90625 463.835938 219.894531 461.339844 219.714844 C 457.175781 219.410156 450.457031 216.011719 441.800781 215.089844 C 433.480469 214.207031 427.382812 216.734375 422.890625 215.425781 C 419.957031 214.574219 418.015625 212.664062 417.472656 208.65625 C 415.253906 192.09375 430.984375 191.417969 442.078125 192.988281 C 453.578125 194.617188 467.714844 204.605469 466.003906 215.316406 " fill-opacity="1" fill-rule="nonzero"/><path fill="#1a1411" d="M 303.046875 215.027344 C 303.800781 218.609375 305.777344 219.570312 308.855469 219.351562 C 313.984375 218.980469 322.226562 215.476562 332.886719 214.414062 C 343.132812 213.398438 350.683594 215.828125 356.207031 214.445312 C 359.8125 213.546875 362.1875 211.609375 362.800781 207.59375 C 365.328125 190.992188 345.902344 190.304688 332.261719 192.324219 C 318.242188 194.394531 300.804688 204.347656 303.046875 215.027344 " fill-opacity="1" fill-rule="nonzero"/><path fill="#ffffff" d="M 362.5625 280.230469 C 362.878906 267.394531 356.8125 238.925781 324.75 251.355469 C 292.679688 263.789062 304.71875 284.824219 307.390625 287.371094 C 327.914062 306.921875 361.996094 303.277344 362.5625 280.230469 " fill-opacity="1" fill-rule="nonzero"/><path fill="#1a1411" d="M 302.492188 265.113281 L 302.492188 265.144531 C 302.890625 262.457031 308.644531 252.71875 318.21875 247.011719 C 322.953125 244.910156 328.636719 243.496094 335.046875 244.246094 C 360.476562 247.214844 362.835938 272.597656 362.835938 272.597656 C 364.535156 276.886719 361.746094 272.71875 361.746094 272.71875 C 355.226562 257.792969 349.046875 252.648438 332.421875 251.945312 C 315.796875 251.246094 307.574219 263.320312 305.46875 266.648438 C 303.367188 269.972656 302.492188 265.113281 302.492188 265.113281 " fill-opacity="1" fill-rule="nonzero"/><path fill="#33537f" d="M 335.839844 257.109375 C 325.902344 254.1875 315.785156 259.992188 312.652344 269.863281 C 309.570312 279.578125 314.402344 289.832031 323.980469 293.308594 C 334.0625 296.96875 345.390625 291.9375 348.84375 281.785156 C 352.359375 271.449219 346.316406 260.1875 335.839844 257.109375 " fill-opacity="1" fill-rule="nonzero"/><path fill="#40678d" d="M 313.777344 271.214844 C 311.890625 278.949219 315.417969 288.226562 324.359375 291.894531 C 333.675781 294.960938 343.628906 289.917969 346.84375 282.316406 C 343.382812 278.550781 337.371094 274.144531 330.953125 270.671875 C 325.265625 270.320312 318.910156 270.433594 313.777344 271.214844 " fill-opacity="1" fill-rule="nonzero"/><g clip-path="url(#56f5fbb111)"><g clip-path="url(#8693efe53c)"><g clip-path="url(#f362442389)"><path fill="#111010" d="M 320.519531 263.222656 L 343.589844 263.300781 L 343.511719 286.378906 L 320.441406 286.296875 Z M 320.519531 263.222656 " fill-opacity="1" fill-rule="nonzero"/></g></g></g><path fill="#ffffff" d="M 338.113281 261.859375 C 333.15625 260.335938 329.464844 263.324219 328.929688 267.003906 C 329.046875 268.988281 331.261719 269.628906 333.578125 271.039062 C 335.78125 272.363281 338.167969 275.074219 340.40625 273.589844 C 344.835938 269.09375 342.535156 263.21875 338.113281 261.859375 " fill-opacity="1" fill-rule="nonzero"/><path fill="#508da1" d="M 327.316406 291.921875 C 318.285156 290.351562 312.386719 279.976562 316.523438 278.242188 C 318.671875 278.246094 318.660156 280.273438 320.96875 282.460938 C 323.75 285.046875 326.019531 286.09375 328.179688 286.515625 C 330.019531 286.816406 332.921875 286.988281 335.597656 286.007812 C 338.707031 284.925781 340.234375 282.632812 341.953125 284.214844 C 344.125 287.894531 333.988281 293.148438 327.316406 291.921875 " fill-opacity="1" fill-rule="nonzero"/><path fill="#ffffff" d="M 324.9375 284.460938 C 322.980469 282.914062 323.574219 280.058594 325.105469 279.074219 C 326.117188 278.546875 326.992188 279.644531 328.09375 280.347656 C 329.148438 281.027344 331.046875 281.613281 330.851562 282.945312 C 329.761719 285.980469 326.519531 285.851562 324.9375 284.460938 " fill-opacity="1" fill-rule="nonzero"/><path fill="#40678d" d="M 325.546875 261.890625 C 324.558594 260.402344 321.671875 260.183594 320.296875 261.566406 C 318.894531 262.96875 319.066406 264.628906 319.984375 265.695312 C 320.96875 266.847656 322.347656 265.921875 323.476562 264.824219 C 324.714844 263.625 326.339844 263.085938 325.546875 261.890625 " fill-opacity="1" fill-rule="nonzero"/><path fill="#40678d" d="M 327.480469 261.496094 C 328.109375 260.816406 328.1875 259.574219 327.300781 258.910156 C 326.421875 258.253906 325.535156 258.597656 325.023438 259.175781 C 324.472656 259.898438 325.113281 260.390625 325.753906 260.917969 C 326.445312 261.492188 326.898438 261.957031 327.480469 261.496094 " fill-opacity="1" fill-rule="nonzero"/><path fill="#702024" d="M 342.488281 313.445312 C 344.257812 312.117188 346.316406 311.238281 348.476562 310.644531 C 378.355469 315.671875 404.914062 317.941406 415.667969 318.738281 C 416.441406 318.796875 420.015625 319.320312 422.480469 322.261719 C 423.332031 324.207031 423.410156 326.3125 423.160156 328.628906 C 421.589844 343.175781 403.78125 361.292969 375.957031 355.5 C 346.179688 349.296875 341.445312 329.847656 340.300781 318.203125 C 341.457031 316.78125 341.058594 314.515625 342.488281 313.445312 " fill-opacity="1" fill-rule="nonzero"/><path fill="#bf455e" d="M 384.894531 356.46875 C 384.894531 356.46875 386.246094 340.53125 367.40625 331.804688 C 348.582031 323.078125 343.027344 329.898438 343.027344 329.898438 C 343.027344 329.898438 349.316406 354.738281 384.894531 356.46875 " fill-opacity="1" fill-rule="nonzero"/><path fill="#ffffff" d="M 343.078125 312.78125 C 345.113281 311.253906 347.613281 310.441406 350.171875 310.019531 C 360.730469 312.183594 379.042969 315.355469 402.132812 317.058594 C 402.132812 317.058594 402.554688 326.496094 391.644531 328.394531 C 381.109375 330.222656 343.324219 320.773438 340.300781 318.203125 C 340.300781 318.203125 339.652344 317.148438 340.082031 315.78125 C 340.511719 314.414062 341.953125 313.621094 343.078125 312.78125 " fill-opacity="1" fill-rule="nonzero"/><path fill="#294b6b" d="M 336.640625 771.03125 L 337.800781 755.105469 L 291.296875 751.71875 L 290.136719 767.644531 L 336.640625 771.03125 " fill-opacity="1" fill-rule="nonzero"/><path fill="#294b6b" d="M 389.378906 771.03125 L 388.21875 755.105469 L 434.726562 751.71875 L 435.882812 767.644531 L 389.378906 771.03125 " fill-opacity="1" fill-rule="nonzero"/><path fill="#1a1411" d="M 480.082031 182.339844 C 481.882812 188.605469 482.273438 195.785156 482.632812 202.800781 C 484.09375 231.121094 484.730469 258.621094 483.5625 287.222656 C 485.25 287.28125 486.921875 287.34375 488.605469 287.402344 C 492.183594 246.195312 503.773438 208.679688 505.289062 167.199219 C 505.644531 157.570312 500.605469 146.953125 497.621094 138.90625 C 492.402344 124.796875 476.453125 119.699219 470.203125 136.394531 C 463.441406 154.464844 476.035156 168.292969 480.082031 182.339844 " fill-opacity="1" fill-rule="nonzero"/><path fill="#1a1411" d="M 436.863281 68.175781 C 461.1875 67.976562 530.648438 136.023438 495.59375 148.519531 C 460.554688 161.011719 443.554688 170.921875 404.980469 170.308594 C 367.902344 169.714844 329.824219 170.847656 296.765625 157.835938 C 308.253906 175.773438 286.535156 194.640625 268.683594 205.234375 C 266.921875 206.28125 265.035156 207.324219 264.011719 208.855469 C 263.015625 210.347656 262.976562 212.09375 262.960938 213.769531 C 262.679688 241.964844 260.050781 262.03125 261.824219 290.230469 C 261.855469 290.726562 261.855469 291.289062 261.402344 291.632812 C 261.078125 291.882812 260.597656 291.957031 260.148438 292.019531 C 255.035156 292.71875 249.910156 293.921875 244.71875 293.125 C 236.304688 273 235.851562 249.878906 231.832031 228.992188 C 227.652344 208.441406 225.054688 192.074219 223.769531 171.167969 C 223.046875 159.410156 222.667969 146.976562 228.132812 135.789062 C 233.789062 124.210938 248.808594 113.414062 265.703125 113.757812 C 263.382812 113.710938 270.578125 93.054688 271.636719 91.246094 C 275.808594 84.113281 282.410156 79.183594 290.835938 74.90625 C 308.042969 66.175781 329.417969 63.171875 349.691406 63.109375 C 376.320312 63.027344 402.660156 67.449219 429.273438 68.109375 C 431.789062 68.171875 434.320312 68.195312 436.863281 68.175781 " fill-opacity="1" fill-rule="nonzero"/><path fill="#b37f67" d="M 370.792969 170.335938 C 369.859375 170.335938 368.933594 170.328125 368 170.3125 C 344.972656 169.859375 321.472656 170.410156 299.664062 164.964844 C 299.21875 162.582031 298.28125 160.203125 296.765625 157.839844 C 322.644531 168.027344 351.597656 169.546875 380.742188 170.007812 C 377.421875 170.226562 374.105469 170.335938 370.792969 170.335938 " fill-opacity="1" fill-rule="nonzero"/><path fill="#181411" d="M 252.960938 208.855469 C 251.136719 198.441406 257.359375 197.300781 262.402344 187.890625 C 269.445312 174.753906 272.203125 159.582031 270.203125 144.964844 C 291.925781 152.679688 314.761719 156.039062 337.859375 156.042969 C 382.222656 156.042969 427.578125 143.660156 468.039062 125.984375 C 468.726562 125.6875 469.484375 125.542969 470.265625 125.542969 C 477.351562 125.542969 486.285156 137.261719 460.515625 148.519531 C 435.765625 159.335938 408.136719 168.210938 380.742188 170.007812 C 351.597656 169.542969 322.644531 168.023438 296.765625 157.839844 C 298.28125 160.203125 299.21875 162.582031 299.664062 164.957031 C 292.816406 163.246094 286.136719 160.945312 279.691406 157.839844 C 289.066406 175.777344 271.339844 194.640625 256.773438 205.234375 C 255.332031 206.28125 253.792969 207.324219 252.960938 208.855469 " fill-opacity="1" fill-rule="nonzero"/><path fill="#e87f21" d="M 394.164062 156.167969 C 319.648438 156.851562 224.785156 161.214844 206.519531 227.300781 C 204.917969 212.617188 201.164062 160.09375 226.953125 112.671875 C 274.304688 25.617188 392.988281 28.792969 392.988281 28.792969 C 392.988281 28.792969 462.609375 21.601562 505.453125 112.734375 C 532.203125 169.636719 520.039062 209.722656 518.710938 224.429688 C 499.234375 158.691406 468.675781 155.480469 394.164062 156.167969 " fill-opacity="1" fill-rule="nonzero"/><path fill="#a63b29" d="M 461.105469 50.839844 C 456 66.265625 446.472656 94.984375 445.609375 149.476562 C 437.949219 149.550781 394.105469 149.953125 394.105469 149.953125 C 394.105469 149.953125 350.261719 150.355469 342.59375 150.421875 C 340.738281 95.953125 330.617188 60.449219 325.226562 45.113281 C 360.21875 25.871094 392.992188 28.789062 392.992188 28.789062 C 392.992188 28.789062 425.761719 32.242188 461.105469 50.839844 " fill-opacity="1" fill-rule="nonzero"/><path fill="#ea9434" d="M 457.925781 49.535156 C 457.925781 49.535156 442.011719 81.960938 441.011719 156.890625 C 439.582031 156.90625 436.765625 156.929688 433.210938 156.960938 C 433.039062 100.273438 438.742188 33.203125 439.605469 22.503906 C 448.027344 26.9375 454.507812 32.863281 457.925781 49.535156 " fill-opacity="1" fill-rule="nonzero"/><path fill="#eeeded" d="M 444.613281 25.621094 C 444.613281 25.621094 436.703125 99.003906 437.242188 156.925781 C 423.765625 157.050781 394.175781 157.324219 394.175781 157.324219 C 394.175781 157.324219 364.582031 157.597656 351.113281 157.714844 C 350.578125 99.792969 341.277344 20.988281 341.277344 20.988281 C 367.261719 -0.015625 422.949219 8.765625 444.613281 25.621094 " fill-opacity="1" fill-rule="nonzero"/><path fill="#e87f21" d="M 433.210938 156.964844 C 418.640625 157.097656 394.175781 157.324219 394.175781 157.324219 C 394.175781 157.324219 369.699219 157.546875 355.128906 157.683594 C 354.257812 100.5625 347.167969 27.332031 346.195312 17.519531 C 371.707031 1.675781 416.902344 9.324219 439.621094 22.316406 C 438.800781 32.425781 433.039062 99.980469 433.210938 156.964844 " fill-opacity="1" fill-rule="nonzero"/><path fill="#ea9434" d="M 346.222656 17.785156 C 347.273438 28.46875 354.265625 101 355.128906 157.679688 C 351.578125 157.714844 348.765625 157.738281 347.339844 157.753906 C 344.953125 82.855469 328.386719 43.75 328.386719 43.75 C 331.492188 27.023438 337.882812 22.375 346.222656 17.785156 " fill-opacity="1" fill-rule="nonzero"/><path fill="#ffffff" d="M 193.917969 204.167969 C 194.90625 202.773438 201.648438 201.421875 203.835938 198.550781 C 210.445312 189.851562 223.507812 176.003906 249.082031 167.058594 C 283.101562 155.160156 362.371094 155.53125 394.15625 155.535156 C 425.9375 154.949219 440.820312 153.707031 475.042969 164.984375 C 500.78125 173.457031 514.089844 187.058594 520.871094 195.636719 C 523.113281 198.46875 529.871094 199.695312 530.890625 201.070312 C 530.378906 201.726562 535.605469 223.746094 526.347656 236.175781 C 522.746094 241.011719 520.371094 216.164062 497.464844 195.886719 C 463.804688 166.105469 394.277344 168.574219 394.277344 168.574219 C 394.277344 168.574219 260.34375 167.976562 227.234375 198.367188 C 204.707031 219.0625 202.785156 243.953125 199.097656 239.179688 C 189.613281 226.925781 194.441406 204.8125 193.917969 204.167969 " fill-opacity="1" fill-rule="nonzero"/><path fill="#e87f21" d="M 193.949219 207.449219 C 194.933594 206.058594 201.675781 204.710938 203.863281 201.828125 C 210.476562 193.132812 223.539062 179.292969 249.113281 170.34375 C 283.128906 158.4375 362.402344 158.816406 394.1875 158.820312 C 425.96875 158.230469 440.851562 156.988281 475.074219 168.261719 C 500.820312 176.742188 514.125 190.34375 520.902344 198.917969 C 523.144531 201.75 529.902344 202.976562 530.917969 204.351562 C 530.410156 205.011719 541.335938 218.8125 532.074219 231.238281 C 528.472656 236.078125 523.5625 240.203125 517.664062 243.710938 C 521.855469 230.710938 520.402344 219.449219 497.496094 199.171875 C 463.835938 169.390625 394.308594 171.859375 394.308594 171.859375 C 394.308594 171.859375 260.371094 171.261719 227.265625 201.65625 C 204.738281 222.351562 203.492188 233.636719 207.921875 246.558594 C 201.960938 243.160156 196.972656 239.125 193.28125 234.351562 C 183.796875 222.097656 194.472656 208.097656 193.949219 207.449219 " fill-opacity="1" fill-rule="nonzero"/></svg>