<svg xmlns="http://www.w3.org/2000/svg" xmlns:xlink="http://www.w3.org/1999/xlink" width="500" zoomAndPan="magnify" viewBox="0 0 375 374.999991" height="500" preserveAspectRatio="xMidYMid meet" version="1.0"><defs><g/><clipPath id="8abb800227"><path d="M 194.035156 118.492188 L 256.421875 118.492188 L 256.421875 223.695312 L 194.035156 223.695312 Z M 194.035156 118.492188 " clip-rule="nonzero"/></clipPath><clipPath id="3ad59b40c7"><path d="M 106.421875 118.429688 L 231 118.429688 L 231 182 L 106.421875 182 Z M 106.421875 118.429688 " clip-rule="nonzero"/></clipPath><clipPath id="add273b840"><path d="M 175.429688 178 L 230.789062 178 L 230.789062 224.121094 L 175.429688 224.121094 Z M 175.429688 178 " clip-rule="nonzero"/></clipPath><clipPath id="82706ce031"><path d="M 124.253906 146.816406 L 186.902344 146.816406 L 186.902344 224.121094 L 124.253906 224.121094 Z M 124.253906 146.816406 " clip-rule="nonzero"/></clipPath></defs><g clip-path="url(#8abb800227)"><path fill="#5d5e61" d="M 214.652344 118.496094 L 194.144531 133.753906 L 204.5 141.457031 L 214.636719 133.914062 L 244.085938 155.914062 L 244.085938 223.617188 L 256.421875 223.617188 L 256.421875 149.695312 L 214.652344 118.496094 " fill-opacity="1" fill-rule="nonzero"/></g><path fill="#aa7422" d="M 180.527344 143.886719 L 176.546875 146.847656 L 186.902344 154.554688 L 190.882812 151.589844 L 180.527344 143.886719 " fill-opacity="1" fill-rule="nonzero"/><path fill="#aa7422" d="M 163.351562 206.066406 L 151.019531 206.066406 L 151.019531 211.746094 L 163.351562 211.746094 L 163.351562 206.066406 " fill-opacity="1" fill-rule="nonzero"/><g clip-path="url(#3ad59b40c7)"><path fill="#c3922e" d="M 167.113281 118.492188 L 106.421875 163.839844 L 113.785156 173.769531 L 167.128906 133.914062 L 201.082031 159.183594 L 230.746094 181.253906 L 230.746094 165.847656 L 167.113281 118.492188 " fill-opacity="1" fill-rule="nonzero"/></g><g clip-path="url(#add273b840)"><path fill="#c3922e" d="M 218.410156 211.746094 L 175.519531 211.746094 L 175.519531 224.121094 L 230.746094 224.121094 L 230.746094 187.179688 L 218.410156 178.003906 L 218.410156 211.746094 " fill-opacity="1" fill-rule="nonzero"/></g><path fill="#aa7422" d="M 218.410156 172.078125 L 218.410156 178.003906 L 230.746094 187.179688 L 230.746094 181.253906 L 218.410156 172.078125 " fill-opacity="1" fill-rule="nonzero"/><g clip-path="url(#82706ce031)"><path fill="#c3922e" d="M 176.546875 146.847656 L 151.019531 165.847656 L 151.019531 211.746094 L 136.714844 211.746094 L 136.714844 156.636719 L 124.382812 165.851562 L 124.382812 224.121094 L 163.351562 224.121094 L 163.351562 172.078125 L 186.902344 154.554688 L 176.546875 146.847656 " fill-opacity="1" fill-rule="nonzero"/></g><path fill="#c3922e" d="M 136.714844 132.96875 L 124.382812 132.96875 L 119.84375 139.5 L 124.382812 136.621094 L 124.382812 145.675781 L 136.714844 136.460938 L 136.714844 132.96875 " fill-opacity="1" fill-rule="nonzero"/><path fill="#aa7422" d="M 136.714844 141.207031 L 136.714844 136.460938 L 124.382812 145.675781 L 124.382812 150.421875 L 136.714844 141.207031 " fill-opacity="1" fill-rule="nonzero"/><g fill="#ffffff" fill-opacity="1"><g transform="translate(123.577966, 266.050499)"><g><path d="M 10.828125 -0.921875 C 10.429688 -0.660156 9.925781 -0.414062 9.3125 -0.1875 C 8.707031 0.03125 8.046875 0.140625 7.328125 0.140625 C 6.066406 0.140625 4.957031 -0.132812 4 -0.6875 C 3.039062 -1.25 2.300781 -2 1.78125 -2.9375 C 1.257812 -3.882812 1 -4.925781 1 -6.0625 C 1 -7.28125 1.257812 -8.375 1.78125 -9.34375 C 2.3125 -10.320312 3.039062 -11.085938 3.96875 -11.640625 C 4.894531 -12.191406 5.941406 -12.46875 7.109375 -12.46875 C 7.796875 -12.46875 8.441406 -12.375 9.046875 -12.1875 C 9.648438 -12.007812 10.191406 -11.769531 10.671875 -11.46875 L 10 -9.921875 C 9.0625 -10.554688 8.113281 -10.875 7.15625 -10.875 C 6.363281 -10.875 5.628906 -10.660156 4.953125 -10.234375 C 4.273438 -9.816406 3.734375 -9.25 3.328125 -8.53125 C 2.929688 -7.8125 2.734375 -7.019531 2.734375 -6.15625 C 2.734375 -5.269531 2.914062 -4.46875 3.28125 -3.75 C 3.644531 -3.03125 4.171875 -2.46875 4.859375 -2.0625 C 5.546875 -1.664062 6.34375 -1.46875 7.25 -1.46875 C 8.351562 -1.46875 9.3125 -1.78125 10.125 -2.40625 Z M 10.828125 -0.921875 "/></g></g></g><g fill="#ffffff" fill-opacity="1"><g transform="translate(135.40303, 266.050499)"><g><path d="M 1 -6.15625 C 1 -7.28125 1.28125 -8.320312 1.84375 -9.28125 C 2.414062 -10.25 3.179688 -11.019531 4.140625 -11.59375 C 5.109375 -12.175781 6.160156 -12.46875 7.296875 -12.46875 C 8.421875 -12.46875 9.460938 -12.175781 10.421875 -11.59375 C 11.390625 -11.019531 12.160156 -10.25 12.734375 -9.28125 C 13.316406 -8.320312 13.609375 -7.28125 13.609375 -6.15625 C 13.609375 -5.019531 13.320312 -3.96875 12.75 -3 C 12.1875 -2.03125 11.414062 -1.265625 10.4375 -0.703125 C 9.46875 -0.140625 8.421875 0.140625 7.296875 0.140625 C 6.160156 0.140625 5.109375 -0.132812 4.140625 -0.6875 C 3.171875 -1.25 2.40625 -2.007812 1.84375 -2.96875 C 1.28125 -3.9375 1 -5 1 -6.15625 Z M 2.703125 -6.140625 C 2.703125 -5.296875 2.90625 -4.515625 3.3125 -3.796875 C 3.726562 -3.085938 4.289062 -2.519531 5 -2.09375 C 5.707031 -1.675781 6.484375 -1.46875 7.328125 -1.46875 C 8.171875 -1.46875 8.941406 -1.671875 9.640625 -2.078125 C 10.335938 -2.492188 10.890625 -3.0625 11.296875 -3.78125 C 11.703125 -4.507812 11.90625 -5.300781 11.90625 -6.15625 C 11.90625 -7.007812 11.695312 -7.796875 11.28125 -8.515625 C 10.875 -9.242188 10.316406 -9.816406 9.609375 -10.234375 C 8.910156 -10.660156 8.140625 -10.875 7.296875 -10.875 C 6.453125 -10.875 5.675781 -10.660156 4.96875 -10.234375 C 4.269531 -9.804688 3.71875 -9.226562 3.3125 -8.5 C 2.90625 -7.78125 2.703125 -6.992188 2.703125 -6.140625 Z M 2.703125 -6.140625 "/></g></g></g><g fill="#ffffff" fill-opacity="1"><g transform="translate(150.00545, 266.050499)"><g><path d="M 12.515625 -12.328125 L 12.515625 0.40625 L 12.46875 0.40625 L 3.40625 -8.78125 L 3.4375 0 L 1.765625 0 L 1.765625 -12.703125 L 1.859375 -12.703125 L 10.890625 -3.40625 L 10.859375 -12.328125 Z M 12.515625 -12.328125 "/></g></g></g><g fill="#ffffff" fill-opacity="1"><g transform="translate(164.284128, 266.050499)"><g><path d="M 9.046875 -12.328125 L 9.046875 -10.734375 L 5.75 -10.734375 L 5.75 0 L 4.09375 0 L 4.09375 -10.734375 L 0.875 -10.734375 L 0.875 -12.328125 Z M 9.046875 -12.328125 "/></g></g></g><g fill="#ffffff" fill-opacity="1"><g transform="translate(174.200822, 266.050499)"><g><path d="M 8.5625 0 L 5.65625 -4.546875 C 5.5625 -4.535156 5.425781 -4.53125 5.25 -4.53125 L 3.421875 -4.53125 L 3.421875 0 L 1.765625 0 L 1.765625 -12.328125 L 5.0625 -12.328125 C 5.90625 -12.328125 6.65625 -12.175781 7.3125 -11.875 C 7.96875 -11.582031 8.484375 -11.148438 8.859375 -10.578125 C 9.234375 -10.003906 9.421875 -9.3125 9.421875 -8.5 C 9.421875 -7.738281 9.253906 -7.039062 8.921875 -6.40625 C 8.585938 -5.769531 8.070312 -5.285156 7.375 -4.953125 L 10.484375 0 Z M 5.21875 -6.140625 C 6.101562 -6.140625 6.738281 -6.367188 7.125 -6.828125 C 7.519531 -7.296875 7.71875 -7.832031 7.71875 -8.4375 C 7.71875 -8.800781 7.632812 -9.160156 7.46875 -9.515625 C 7.3125 -9.867188 7.050781 -10.160156 6.6875 -10.390625 C 6.332031 -10.617188 5.878906 -10.734375 5.328125 -10.734375 L 3.421875 -10.734375 L 3.421875 -6.140625 Z M 5.21875 -6.140625 "/></g></g></g><g fill="#ffffff" fill-opacity="1"><g transform="translate(185.446564, 266.050499)"><g><path d="M 8.234375 -3.234375 L 3.5 -3.234375 L 2.1875 0 L 0.546875 0 L 5.9375 -12.84375 L 6.03125 -12.84375 L 11.421875 0 L 9.515625 0 Z M 7.671875 -4.671875 L 5.921875 -9.171875 L 4.09375 -4.671875 Z M 7.671875 -4.671875 "/></g></g></g><g fill="#ffffff" fill-opacity="1"><g transform="translate(197.3909, 266.050499)"><g><path d="M 10.828125 -0.921875 C 10.429688 -0.660156 9.925781 -0.414062 9.3125 -0.1875 C 8.707031 0.03125 8.046875 0.140625 7.328125 0.140625 C 6.066406 0.140625 4.957031 -0.132812 4 -0.6875 C 3.039062 -1.25 2.300781 -2 1.78125 -2.9375 C 1.257812 -3.882812 1 -4.925781 1 -6.0625 C 1 -7.28125 1.257812 -8.375 1.78125 -9.34375 C 2.3125 -10.320312 3.039062 -11.085938 3.96875 -11.640625 C 4.894531 -12.191406 5.941406 -12.46875 7.109375 -12.46875 C 7.796875 -12.46875 8.441406 -12.375 9.046875 -12.1875 C 9.648438 -12.007812 10.191406 -11.769531 10.671875 -11.46875 L 10 -9.921875 C 9.0625 -10.554688 8.113281 -10.875 7.15625 -10.875 C 6.363281 -10.875 5.628906 -10.660156 4.953125 -10.234375 C 4.273438 -9.816406 3.734375 -9.25 3.328125 -8.53125 C 2.929688 -7.8125 2.734375 -7.019531 2.734375 -6.15625 C 2.734375 -5.269531 2.914062 -4.46875 3.28125 -3.75 C 3.644531 -3.03125 4.171875 -2.46875 4.859375 -2.0625 C 5.546875 -1.664062 6.34375 -1.46875 7.25 -1.46875 C 8.351562 -1.46875 9.3125 -1.78125 10.125 -2.40625 Z M 10.828125 -0.921875 "/></g></g></g><g fill="#ffffff" fill-opacity="1"><g transform="translate(209.215964, 266.050499)"><g><path d="M 9.046875 -12.328125 L 9.046875 -10.734375 L 5.75 -10.734375 L 5.75 0 L 4.09375 0 L 4.09375 -10.734375 L 0.875 -10.734375 L 0.875 -12.328125 Z M 9.046875 -12.328125 "/></g></g></g><g fill="#ffffff" fill-opacity="1"><g transform="translate(219.132658, 266.050499)"><g><path d="M 3.421875 -12.328125 L 3.421875 0 L 1.765625 0 L 1.765625 -12.328125 Z M 3.421875 -12.328125 "/></g></g></g><g fill="#ffffff" fill-opacity="1"><g transform="translate(224.329557, 266.050499)"><g><path d="M 12.515625 -12.328125 L 12.515625 0.40625 L 12.46875 0.40625 L 3.40625 -8.78125 L 3.4375 0 L 1.765625 0 L 1.765625 -12.703125 L 1.859375 -12.703125 L 10.890625 -3.40625 L 10.859375 -12.328125 Z M 12.515625 -12.328125 "/></g></g></g><g fill="#ffffff" fill-opacity="1"><g transform="translate(238.608236, 266.050499)"><g><path d="M 11.4375 -1.0625 C 11.0625 -0.757812 10.472656 -0.484375 9.671875 -0.234375 C 8.867188 0.015625 8.128906 0.140625 7.453125 0.140625 C 6.160156 0.140625 5.023438 -0.125 4.046875 -0.65625 C 3.078125 -1.1875 2.328125 -1.910156 1.796875 -2.828125 C 1.265625 -3.742188 1 -4.78125 1 -5.9375 C 1 -7.269531 1.28125 -8.425781 1.84375 -9.40625 C 2.414062 -10.394531 3.1875 -11.148438 4.15625 -11.671875 C 5.125 -12.203125 6.179688 -12.46875 7.328125 -12.46875 C 8.023438 -12.46875 8.679688 -12.382812 9.296875 -12.21875 C 9.910156 -12.050781 10.457031 -11.832031 10.9375 -11.5625 L 10.40625 -10.046875 C 10.039062 -10.242188 9.582031 -10.421875 9.03125 -10.578125 C 8.476562 -10.734375 7.976562 -10.8125 7.53125 -10.8125 C 6.582031 -10.8125 5.738281 -10.617188 5 -10.234375 C 4.269531 -9.847656 3.703125 -9.296875 3.296875 -8.578125 C 2.898438 -7.859375 2.703125 -7.019531 2.703125 -6.0625 C 2.703125 -5.175781 2.898438 -4.382812 3.296875 -3.6875 C 3.703125 -3 4.265625 -2.460938 4.984375 -2.078125 C 5.710938 -1.703125 6.546875 -1.515625 7.484375 -1.515625 C 7.910156 -1.515625 8.328125 -1.554688 8.734375 -1.640625 C 9.148438 -1.722656 9.492188 -1.847656 9.765625 -2.015625 L 9.765625 -4.453125 L 7.3125 -4.453125 L 7.3125 -6.03125 L 11.4375 -6.03125 Z M 11.4375 -1.0625 "/></g></g></g><g fill="#ffffff" fill-opacity="1"><g transform="translate(111.747935, 246.154568)"><g><path d="M 9.40625 0 L 4.78125 0 L 4.78125 -13.34375 L 0.59375 -13.34375 L 0.59375 -17.140625 L 13.578125 -17.140625 L 13.578125 -13.34375 L 9.40625 -13.34375 Z M 9.40625 0 "/></g></g></g><g fill="#ffffff" fill-opacity="1"><g transform="translate(127.751621, 246.154568)"><g><path d="M 17.890625 -8.59375 C 17.890625 -5.707031 17.179688 -3.515625 15.765625 -2.015625 C 14.347656 -0.515625 12.273438 0.234375 9.546875 0.234375 C 6.859375 0.234375 4.796875 -0.519531 3.359375 -2.03125 C 1.929688 -3.539062 1.21875 -5.734375 1.21875 -8.609375 C 1.21875 -11.460938 1.929688 -13.640625 3.359375 -15.140625 C 4.785156 -16.648438 6.859375 -17.40625 9.578125 -17.40625 C 12.304688 -17.40625 14.375 -16.65625 15.78125 -15.15625 C 17.1875 -13.664062 17.890625 -11.476562 17.890625 -8.59375 Z M 6.09375 -8.59375 C 6.09375 -5.28125 7.242188 -3.625 9.546875 -3.625 C 10.722656 -3.625 11.59375 -4.023438 12.15625 -4.828125 C 12.726562 -5.628906 13.015625 -6.882812 13.015625 -8.59375 C 13.015625 -10.300781 12.722656 -11.5625 12.140625 -12.375 C 11.566406 -13.195312 10.710938 -13.609375 9.578125 -13.609375 C 7.253906 -13.609375 6.09375 -11.9375 6.09375 -8.59375 Z M 6.09375 -8.59375 "/></g></g></g><g fill="#ffffff" fill-opacity="1"><g transform="translate(148.700619, 246.154568)"><g><path d="M 14.28125 -11.6875 C 14.28125 -9.769531 13.71875 -8.289062 12.59375 -7.25 C 11.46875 -6.207031 9.863281 -5.6875 7.78125 -5.6875 L 6.484375 -5.6875 L 6.484375 0 L 1.859375 0 L 1.859375 -17.140625 L 7.78125 -17.140625 C 9.945312 -17.140625 11.570312 -16.664062 12.65625 -15.71875 C 13.738281 -14.769531 14.28125 -13.425781 14.28125 -11.6875 Z M 6.484375 -9.453125 L 7.328125 -9.453125 C 8.023438 -9.453125 8.578125 -9.644531 8.984375 -10.03125 C 9.390625 -10.425781 9.59375 -10.96875 9.59375 -11.65625 C 9.59375 -12.8125 8.953125 -13.390625 7.671875 -13.390625 L 6.484375 -13.390625 Z M 6.484375 -9.453125 "/></g></g></g><g fill="#ffffff" fill-opacity="1"><g transform="translate(165.68868, 246.154568)"><g/></g></g><g fill="#ffffff" fill-opacity="1"><g transform="translate(173.747053, 246.154568)"><g><path d="M 8.734375 -10.03125 L 16.125 -10.03125 L 16.125 -0.796875 C 14.113281 -0.109375 11.90625 0.234375 9.5 0.234375 C 6.863281 0.234375 4.820312 -0.53125 3.375 -2.0625 C 1.9375 -3.59375 1.21875 -5.773438 1.21875 -8.609375 C 1.21875 -11.378906 2.003906 -13.53125 3.578125 -15.0625 C 5.160156 -16.601562 7.375 -17.375 10.21875 -17.375 C 11.300781 -17.375 12.316406 -17.269531 13.265625 -17.0625 C 14.222656 -16.863281 15.0625 -16.609375 15.78125 -16.296875 L 14.3125 -12.671875 C 13.070312 -13.273438 11.71875 -13.578125 10.25 -13.578125 C 8.894531 -13.578125 7.847656 -13.140625 7.109375 -12.265625 C 6.367188 -11.390625 6 -10.132812 6 -8.5 C 6 -6.894531 6.332031 -5.671875 7 -4.828125 C 7.664062 -3.992188 8.628906 -3.578125 9.890625 -3.578125 C 10.578125 -3.578125 11.210938 -3.644531 11.796875 -3.78125 L 11.796875 -6.453125 L 8.734375 -6.453125 Z M 8.734375 -10.03125 "/></g></g></g><g fill="#ffffff" fill-opacity="1"><g transform="translate(193.336676, 246.154568)"><g><path d="M 6.484375 -6.234375 L 6.484375 0 L 1.859375 0 L 1.859375 -17.140625 L 7.46875 -17.140625 C 12.125 -17.140625 14.453125 -15.453125 14.453125 -12.078125 C 14.453125 -10.085938 13.484375 -8.550781 11.546875 -7.46875 L 16.53125 0 L 11.28125 0 L 7.65625 -6.234375 Z M 6.484375 -9.71875 L 7.34375 -9.71875 C 8.96875 -9.71875 9.78125 -10.429688 9.78125 -11.859375 C 9.78125 -13.035156 8.984375 -13.625 7.390625 -13.625 L 6.484375 -13.625 Z M 6.484375 -9.71875 "/></g></g></g><g fill="#ffffff" fill-opacity="1"><g transform="translate(211.402862, 246.154568)"><g><path d="M 12.359375 0 L 11.515625 -3.21875 L 5.953125 -3.21875 L 5.09375 0 L 0 0 L 5.59375 -17.203125 L 11.765625 -17.203125 L 17.421875 0 Z M 10.5625 -7.015625 L 9.828125 -9.828125 C 9.648438 -10.453125 9.4375 -11.257812 9.1875 -12.25 C 8.945312 -13.238281 8.785156 -13.945312 8.703125 -14.375 C 8.640625 -13.976562 8.503906 -13.320312 8.296875 -12.40625 C 8.085938 -11.5 7.628906 -9.703125 6.921875 -7.015625 Z M 10.5625 -7.015625 "/></g></g></g><g fill="#ffffff" fill-opacity="1"><g transform="translate(230.652636, 246.154568)"><g><path d="M 16.390625 -8.9375 C 16.390625 -6.070312 15.601562 -3.863281 14.03125 -2.3125 C 12.457031 -0.769531 10.242188 0 7.390625 0 L 1.859375 0 L 1.859375 -17.140625 L 7.78125 -17.140625 C 10.53125 -17.140625 12.648438 -16.4375 14.140625 -15.03125 C 15.640625 -13.625 16.390625 -11.59375 16.390625 -8.9375 Z M 11.59375 -8.765625 C 11.59375 -10.335938 11.28125 -11.5 10.65625 -12.25 C 10.039062 -13.007812 9.097656 -13.390625 7.828125 -13.390625 L 6.484375 -13.390625 L 6.484375 -3.796875 L 7.515625 -3.796875 C 8.921875 -3.796875 9.953125 -4.203125 10.609375 -5.015625 C 11.265625 -5.835938 11.59375 -7.085938 11.59375 -8.765625 Z M 11.59375 -8.765625 "/></g></g></g><g fill="#ffffff" fill-opacity="1"><g transform="translate(250.089921, 246.154568)"><g><path d="M 12.03125 0 L 1.859375 0 L 1.859375 -17.140625 L 12.03125 -17.140625 L 12.03125 -13.421875 L 6.484375 -13.421875 L 6.484375 -10.71875 L 11.609375 -10.71875 L 11.609375 -7.015625 L 6.484375 -7.015625 L 6.484375 -3.78125 L 12.03125 -3.78125 Z M 12.03125 0 "/></g></g></g></svg>